<svg id="Layer_1" data-name="Layer 1" xmlns="http://www.w3.org/2000/svg" viewBox="0 0 510.72 433.63"><path d="M605.36,341.76a3,3,0,0,0-.28-1V320.66c0-.08,0-.14,0-.22a4.25,4.25,0,0,0-.14-.71,3.62,3.62,0,0,0-.2-.55,2.63,2.63,0,0,0-.38-.56,4.11,4.11,0,0,0-.38-.45,3.53,3.53,0,0,0-.55-.37,3.49,3.49,0,0,0-.58-.29c-.08,0-.14-.09-.22-.11l-49.12-13.07-.23-20.44a.8.8,0,0,0,0-.15,4.15,4.15,0,0,0-.15-.7,2.9,2.9,0,0,0-.18-.57,3.07,3.07,0,0,0-.35-.51,2.49,2.49,0,0,0-.41-.5,3,3,0,0,0-.51-.34,2.59,2.59,0,0,0-.59-.32c-.07,0-.11-.08-.17-.09l-16.76-5-.21-21.12s0-.07,0-.11a2.82,2.82,0,0,0-.15-.7,3.39,3.39,0,0,0-.16-.59c-.07-.13-.16-.22-.23-.34a3.81,3.81,0,0,0-.57-.75l0,0a3.16,3.16,0,0,0-1.11-.64h0l-17.94-6-.21-21.83a.43.43,0,0,1,0-.05,2.87,2.87,0,0,0-.17-.77,2.8,2.8,0,0,0-.12-.5,3.26,3.26,0,0,0-.66-.94s0,0,0-.05a3.28,3.28,0,0,0-1.21-.8L492,213.42l-.19-22.56h0a3.6,3.6,0,0,0-.27-1.3h0a3.38,3.38,0,0,0-.93-1.19,3.53,3.53,0,0,0-.87-.57l0,0-20.62-8.26-.18-23.25v-.08a2.3,2.3,0,0,0-.06-.28,3.23,3.23,0,0,0-.2-1,4.13,4.13,0,0,0-.33-.52,2.28,2.28,0,0,0-1.12-1.06c-.11-.06-.19-.16-.31-.22h0l-22.08-9.6-.16-24h0v-.15a3.58,3.58,0,0,0-.09-.45,3.21,3.21,0,0,0-.16-.76,2.59,2.59,0,0,0-.33-.55,3.2,3.2,0,0,0-.36-.52,2.87,2.87,0,0,0-.63-.47,2,2,0,0,0-.37-.27l-23.76-11.12-.13-25a3.5,3.5,0,0,0-.12-.63c0-.16,0-.32-.09-.48a3,3,0,0,0-2.08-2.09l-27-13.51a.38.38,0,0,0-.1,0,3.38,3.38,0,0,0-.42-.13,3.3,3.3,0,0,0-.52-.13l-.36-.05-.1,0h0c-.1,0-.2,0-.31.06s-.2,0-.3,0l-139,26.54a2.26,2.26,0,0,0-.33.13,2.89,2.89,0,0,0-.63.26,3,3,0,0,0-.52.35,3.82,3.82,0,0,0-.45.45,2.63,2.63,0,0,0-.35.52,4.23,4.23,0,0,0-.25.58,3.51,3.51,0,0,0-.13.66,3.4,3.4,0,0,0-.07.34l-.06,26.27c0,.11.06.19.06.29a1.5,1.5,0,0,0,0,.3c0,.07,0,.12.06.18a3.38,3.38,0,0,0,.11.34,2.39,2.39,0,0,0,.15.37,2.6,2.6,0,0,0,.28.45,1.74,1.74,0,0,0,.1.19l158,193.88-2.2-.39c-.1,0-.2,0-.3,0s-.19-.05-.3-.06l-.12,0s-.08,0-.12,0l-108.43,8.25a3.43,3.43,0,0,0-.57.17,2.85,2.85,0,0,0-.59.16,3.67,3.67,0,0,0-.56.38,1.93,1.93,0,0,0-.84.91,2.8,2.8,0,0,0-.32.56,3.29,3.29,0,0,0-.12.64,2.57,2.57,0,0,0-.12.55v12.26l-20.35,1.4a2.56,2.56,0,0,0-.56.15,3.05,3.05,0,0,0-.61.17,3.17,3.17,0,0,0-.54.36,2.4,2.4,0,0,0-.5.39,2.56,2.56,0,0,0-.35.51,2.72,2.72,0,0,0-.33.57,3.3,3.3,0,0,0-.13.64,2.57,2.57,0,0,0-.12.55v13.3l-21.57,1.31a2.73,2.73,0,0,0-.56.15,4.16,4.16,0,0,0-.63.17,3.31,3.31,0,0,0-.55.37,3,3,0,0,0-.48.38,3.43,3.43,0,0,0-.37.54,3.18,3.18,0,0,0-.31.53,2.49,2.49,0,0,0-.14.68c0,.17-.1.34-.11.53l0,14.4-22.88,1.19a3.25,3.25,0,0,0-.63.17,3.1,3.1,0,0,0-.58.15,3.26,3.26,0,0,0-.56.38,2.8,2.8,0,0,0-.48.37,2.16,2.16,0,0,0-.36.53,3.47,3.47,0,0,0-.34.54,3.6,3.6,0,0,0-.12.64,2.85,2.85,0,0,0-.12.58l0,15.61L191,397.12a3.42,3.42,0,0,0-.63.16,3.9,3.9,0,0,0-.59.14,3.53,3.53,0,0,0-.57.38,3.48,3.48,0,0,0-.48.35,2.79,2.79,0,0,0-.37.55,2.62,2.62,0,0,0-.33.53,3.36,3.36,0,0,0-.13.66,3.61,3.61,0,0,0-.12.57l-.07,17-25.86.85a3.32,3.32,0,0,0-.64.15,5.09,5.09,0,0,0-.59.14,3.92,3.92,0,0,0-.58.39,5.22,5.22,0,0,0-.48.34,3.2,3.2,0,0,0-.37.56,2.72,2.72,0,0,0-.32.51,2.76,2.76,0,0,0-.14.66,2.94,2.94,0,0,0-.12.59l-.11,18.5-27.53.61a.66.66,0,0,0-.15,0,3.09,3.09,0,0,0-2.88,2.05,3.35,3.35,0,0,0-.11.55,3.5,3.5,0,0,0-.15.7l-.14,20.2-29.37.29-.09,0a3.17,3.17,0,0,0-3.23,3.3l-.22,25.15h0a3.47,3.47,0,0,0,.11.56,4.29,4.29,0,0,0,.15.73,3.76,3.76,0,0,0,.3.47,1.86,1.86,0,0,0,1,1,5.22,5.22,0,0,0,.48.34,4.06,4.06,0,0,0,.71.15,2.94,2.94,0,0,0,.59.12h0l121.13.39h0l31-.2.1,0a3.34,3.34,0,0,0,1.12-.23c.15-.07.27-.17.41-.25a3.76,3.76,0,0,0,.55-.32l160-139.09,189.87-11.39a4,4,0,0,0,.59-.16h0a3.31,3.31,0,0,0,2.52-3.39ZM428.73,334.7l-173.62-213L386.57,98.23,544.27,327Zm-44-243-132.47,23.6,0-19.47L384.65,70.59ZM552.42,327l-161-233.53L391.37,72,412,82.35l.13,24.89h0v.14a3.26,3.26,0,0,0,.09.45,3.21,3.21,0,0,0,.16.76,2.84,2.84,0,0,0,.33.56,2.07,2.07,0,0,0,1,1,3.07,3.07,0,0,0,.36.27l23.78,11.12.15,24.12v.08a2.8,2.8,0,0,0,.06.28,3.1,3.1,0,0,0,.2,1,3,3,0,0,0,.34.53,2.87,2.87,0,0,0,.37.54,3.38,3.38,0,0,0,.76.54,2.16,2.16,0,0,0,.29.21h0l22.1,9.59.17,23.4h0a3.3,3.3,0,0,0,1.23,2.51,3.21,3.21,0,0,0,.85.56h0l20.63,8.27.19,22.63a.43.43,0,0,1,0,0,3.08,3.08,0,0,0,.17.8,2.7,2.7,0,0,0,.12.49,4.52,4.52,0,0,0,.34.51,4.11,4.11,0,0,0,.39.54,2.65,2.65,0,0,0,.43.28,3,3,0,0,0,.68.42l.07,0L506.73,226l.2,21.9s0,.07,0,.11a2.81,2.81,0,0,0,.15.71,2.84,2.84,0,0,0,.16.57,4,4,0,0,0,.34.5,3.56,3.56,0,0,0,.41.53,2.85,2.85,0,0,0,.46.31,3.21,3.21,0,0,0,.65.37.33.33,0,0,0,.1.06l17.95,6,.22,21.21a.83.83,0,0,0,0,.15,3.25,3.25,0,0,0,.14.69,3.45,3.45,0,0,0,.18.57,3.15,3.15,0,0,0,.35.52,3.89,3.89,0,0,0,.41.5,3.61,3.61,0,0,0,.5.33,2.72,2.72,0,0,0,.63.34c.05,0,.09.06.15.08l16.75,5,.23,20.53a1.17,1.17,0,0,0,.05.2,2.64,2.64,0,0,0,.14.69,3.93,3.93,0,0,0,.19.58,3.87,3.87,0,0,0,.37.53,3.07,3.07,0,0,0,.41.47,3.24,3.24,0,0,0,.53.35,2.94,2.94,0,0,0,.59.29c.08,0,.13.09.22.11l49.09,13.06v14.5ZM423.11,338.44,248.86,489.92l-26.35.17.06-19.95,27.53.56h.07a3.5,3.5,0,0,0,1.3-.26,5,5,0,0,0,.45-.3,2.87,2.87,0,0,0,.61-.42,3.7,3.7,0,0,0,.35-.5,2.94,2.94,0,0,0,.37-.55,3.39,3.39,0,0,0,.13-.57,2.73,2.73,0,0,0,.15-.7v-.06l0-22.36,25.57,1.19h.16a3.43,3.43,0,0,0,1.28-.25c.13-.06.24-.17.36-.24a3.61,3.61,0,0,0,.69-.46,4.27,4.27,0,0,0,.29-.41,3,3,0,0,0,.43-.63,2.54,2.54,0,0,0,.13-.56,2.73,2.73,0,0,0,.16-.64s0-.05,0-.08,0,0,0-.08l0-21.44,23.76,1.73h.25a3.21,3.21,0,0,0,1.27-.26,4.25,4.25,0,0,0,.39-.25,2.86,2.86,0,0,0,.65-.44,2.1,2.1,0,0,0,.31-.41,3.3,3.3,0,0,0,.42-.61,4.75,4.75,0,0,0,.14-.54,2.41,2.41,0,0,0,.16-.6.57.57,0,0,0,0-.13s0-.08,0-.12V399.19l22.11,2.19a1.83,1.83,0,0,0,.33,0h0a3.32,3.32,0,0,0,1.22-.25,2.7,2.7,0,0,0,.4-.25,3.49,3.49,0,0,0,.65-.43,3.38,3.38,0,0,0,.31-.41,3.18,3.18,0,0,0,.41-.6,16.55,16.55,0,0,1,.32-1.08c0-.06,0-.11,0-.17s0-.11,0-.17l0-19.73,20.59,2.59.42,0h.06a3.37,3.37,0,0,0,1.19-.24c.15-.07.27-.17.41-.25a3.34,3.34,0,0,0,.63-.43c.12-.11.2-.25.31-.37a3.29,3.29,0,0,0,.42-.63,2.21,2.21,0,0,0,.15-.48,3.27,3.27,0,0,0,.17-.53c0-.08,0-.15,0-.24s0-.12,0-.2l0-18.94,19.2,2.91a2.74,2.74,0,0,0,.5,0h.05a3.16,3.16,0,0,0,1.19-.24,3.38,3.38,0,0,0,.41-.24,3.75,3.75,0,0,0,.62-.42,4.35,4.35,0,0,0,.34-.41,2.9,2.9,0,0,0,.38-.58,3.31,3.31,0,0,0,.18-.53,3.12,3.12,0,0,0,.15-.43,2.28,2.28,0,0,0,0-.26,2.38,2.38,0,0,0,0-.26L383.09,340,401,343.17a3.92,3.92,0,0,0,.59.05,3.24,3.24,0,0,0,1.24-.26,2,2,0,0,0,.32-.18,2.81,2.81,0,0,0,.7-.48,2.52,2.52,0,0,0,.3-.35,2.9,2.9,0,0,0,.41-.62,2.78,2.78,0,0,0,.18-.48,3.25,3.25,0,0,0,.15-.4c0-.11,0-.21,0-.31s.06-.19.06-.29l-.07-17.59,5.93,1.06ZM101.54,471.24l29.31-.29h0l85-.85-.06,20-114.39-.36ZM296.42,329.63l101.73-7.74.05,14-17.88-3.18a1.48,1.48,0,0,0-.3,0,2.65,2.65,0,0,0-.3-.06h0l-.11,0-.11,0-83.07,5.71Zm-23.48,17.06,103.44-7.11.05,14.71-19.19-2.92c-.09,0-.17,0-.25,0s-.16-.05-.25-.05h0l-.09,0s-.07,0-.1,0l-83.62,5.09Zm-24.74,18,105.2-6.41,0,15.49-20.59-2.59-.22,0a1.42,1.42,0,0,0-.2,0h-.18l-84.09,4.4Zm-26.11,19,107-5.6,0,16.29L307,392.14c-.06,0-.12,0-.17,0s-.11,0-.17,0h-.14l-84.47,3.64Zm-27.58,20L303.31,399v17.16l-23.75-1.74-.13,0-.12,0h-.1l-84.76,2.8Zm-29.18,21.21,25.73-.85h0l84.88-2.8v18.05l-25.56-1.19-.08,0-.07,0h-.08L165.23,440Zm-30.94,22.48,112.46-2.48,0,19-27.54-.55h-.09l-84.92.84ZM430,341.35l120.12-8,28.4,6.63-157.86,9.47Z" transform="translate(-94.65 -63.2)"/></svg>